<svg width="40" height="40" viewBox="0 0 40 40" fill="none" xmlns="http://www.w3.org/2000/svg">
  <!-- Clock circle background -->
  <circle cx="20" cy="20" r="18" fill="white" stroke="url(#gradient)" stroke-width="2"/>
  
  <!-- 15-minute highlighted section (90 degrees) -->
  <path d="M 20 20 L 20 2 A 18 18 0 0 1 38 20 Z" fill="#EC4899" opacity="0.3"/>
  <path d="M 20 20 L 20 2 A 18 18 0 0 1 38 20 Z" fill="none" stroke="#EC4899" stroke-width="2"/>
  
  <!-- Clock face markings -->
  <circle cx="20" cy="5" r="2" fill="#1F2937"/>
  <circle cx="35" cy="20" r="2" fill="#1F2937"/>
  <circle cx="20" cy="35" r="2" fill="#1F2937"/>
  <circle cx="5" cy="20" r="2" fill="#1F2937"/>
  
  <!-- Additional hour markings -->
  <circle cx="26.5" cy="7.5" r="1" fill="#9CA3AF" opacity="0.5"/>
  <circle cx="32.5" cy="13.5" r="1" fill="#9CA3AF" opacity="0.5"/>
  <circle cx="32.5" cy="26.5" r="1" fill="#9CA3AF" opacity="0.5"/>
  <circle cx="26.5" cy="32.5" r="1" fill="#9CA3AF" opacity="0.5"/>
  <circle cx="13.5" cy="32.5" r="1" fill="#9CA3AF" opacity="0.5"/>
  <circle cx="7.5" cy="26.5" r="1" fill="#9CA3AF" opacity="0.5"/>
  <circle cx="7.5" cy="13.5" r="1" fill="#9CA3AF" opacity="0.5"/>
  <circle cx="13.5" cy="7.5" r="1" fill="#9CA3AF" opacity="0.5"/>
  
  <!-- Clock center -->
  <circle cx="20" cy="20" r="2.5" fill="#1F2937"/>
  
  <!-- Clock hands -->
  <line x1="20" y1="20" x2="20" y2="9" stroke="#1F2937" stroke-width="2.5" stroke-linecap="round"/>
  <line x1="20" y1="20" x2="30" y2="20" stroke="#EC4899" stroke-width="3" stroke-linecap="round"/>
  
  <!-- Gradients -->
  <defs>
    <linearGradient id="gradient" x1="0%" y1="0%" x2="100%" y2="100%">
      <stop offset="0%" style="stop-color:#3B82F6;stop-opacity:1" />
      <stop offset="100%" style="stop-color:#1D4ED8;stop-opacity:1" />
    </linearGradient>
  </defs>
</svg>